M48
; DRILL file {KiCad (5.1.2-1)-1} date Tuesday, 28 May 2019 at 09:53:59
; FORMAT={-:-/ absolute / metric / decimal}
; #@! TF.CreationDate,2019-05-28T09:53:59+02:00
; #@! TF.GenerationSoftware,Kicad,Pcbnew,(5.1.2-1)-1
FMAT,2
METRIC
T1C0.700
T2C1.000
T3C1.300
T4C1.400
%
G90
G05
T1
X55.5Y-67.25
X63.12Y-67.25
T2
X68.38Y-67.25
X70.92Y-67.25
X73.46Y-67.25
X76.0Y-67.25
X55.51Y-71.0
X55.51Y-78.62
X58.05Y-71.0
X58.05Y-78.62
X60.59Y-71.0
X60.59Y-78.62
X63.13Y-71.0
X63.13Y-78.62
X65.67Y-71.0
X65.67Y-78.62
X68.21Y-71.0
X68.21Y-78.62
X70.75Y-71.0
X70.75Y-78.62
T3
X86.408Y-87.88
X91.408Y-87.88
X75.232Y-87.88
X80.232Y-87.88
X64.27Y-87.88
X69.27Y-87.88
X53.134Y-87.88
X58.134Y-87.88
T4
X53.348Y-52.828
X53.348Y-58.328
X57.548Y-52.828
X57.548Y-58.328
X61.748Y-52.828
X61.748Y-58.328
X65.948Y-52.828
X65.948Y-58.328
X70.148Y-52.828
X70.148Y-58.328
X74.348Y-52.828
X74.348Y-58.328
X78.548Y-52.828
X78.548Y-58.328
X82.748Y-52.828
X82.748Y-58.328
X86.948Y-52.828
X86.948Y-58.328
X91.148Y-52.828
X91.148Y-58.328
T0
M30
